{
  "accessors": [
    {
      "bufferView": 2,
      "componentType": 5126,
      "count": 14133,
      "max": [
        8.89324951171875,
        11.66186237335205,
        2.8335068225860596
      ],
      "min": [
        -8.89324951171875,
        -9.946708679199219,
        -2.899383544921875
      ],
      "type": "VEC3"
    },
    {
      "bufferView": 2,
      "byteOffset": 169596,
      "componentType": 5126,
      "count": 14133,
      "max": [
        0.9999953508377075,
        1.0,
        1.0
      ],
      "min": [
        -1.0,
        -0.9995570182800293,
        -0.9999945163726807
      ],
      "type": "VEC3"
    },
    {
      "bufferView": 3,
      "componentType": 5126,
      "count": 14133,
      "max": [
        0.9997135400772095,
        0.9998597502708435,
        0.9998859763145447,
        1.0
      ],
      "min": [
        -0.9999009370803833,
        -1.0,
        -0.9999999403953552,
        -1.0
      ],
      "type": "VEC4"
    },
    {
      "bufferView": 1,
      "componentType": 5126,
      "count": 14133,
      "max": [
        0.9828828573226929,
        0.9990088939666748
      ],
      "min": [
        0.0008339934283867478,
        0.0009330462198704481
      ],
      "type": "VEC2"
    },
    {
      "bufferView": 0,
      "componentType": 5125,
      "count": 60828,
      "type": "SCALAR"
    },
    {
      "bufferView": 2,
      "byteOffset": 339192,
      "componentType": 5126,
      "count": 127,
      "max": [
        1.4399226903915405,
        -5.202425003051758,
        0.7285983562469482
      ],
      "min": [
        -1.4399226903915405,
        -9.666081428527832,
        -1.1402270793914795
      ],
      "type": "VEC3"
    },
    {
      "bufferView": 2,
      "byteOffset": 340716,
      "componentType": 5126,
      "count": 127,
      "max": [
        0.863624632358551,
        -0.2770743668079376,
        0.942774772644043
      ],
      "min": [
        -0.863612949848175,
        -0.8298332691192627,
        0.22779481112957
      ],
      "type": "VEC3"
    },
    {
      "bufferView": 3,
      "byteOffset": 226128,
      "componentType": 5126,
      "count": 127,
      "max": [
        0.9884300827980042,
        0.3332386016845703,
        -0.05236094444990158,
        1.0
      ],
      "min": [
        -0.9918394088745117,
        -0.9318240284919739,
        -0.9082940816879272,
        -1.0
      ],
      "type": "VEC4"
    },
    {
      "bufferView": 1,
      "byteOffset": 113064,
      "componentType": 5126,
      "count": 127,
      "max": [
        0.9796314239501953,
        0.3747915029525757
      ],
      "min": [
        0.8795241117477417,
        0.02166280709207058
      ],
      "type": "VEC2"
    },
    {
      "bufferView": 0,
      "byteOffset": 243312,
      "componentType": 5125,
      "count": 432,
      "type": "SCALAR"
    }
  ],
  "asset": {
    "extras": {
      "author": "Wender Silva (https://sketchfab.com/super_wender)",
      "license": "CC-BY-4.0 (http://creativecommons.org/licenses/by/4.0/)",
      "source": "https://sketchfab.com/3d-models/spaceship-low-poly-8a3674c37d4c4afa9326f9c7ab0f90bf",
      "title": "Spaceship | Low Poly"
    },
    "generator": "Sketchfab-15.15.0",
    "version": "2.0"
  },
  "bufferViews": [
    {
      "buffer": 0,
      "byteLength": 245040,
      "name": "floatBufferViews",
      "target": 34963
    },
    {
      "buffer": 0,
      "byteLength": 114080,
      "byteOffset": 245040,
      "byteStride": 8,
      "name": "floatBufferViews",
      "target": 34962
    },
    {
      "buffer": 0,
      "byteLength": 342240,
      "byteOffset": 359120,
      "byteStride": 12,
      "name": "floatBufferViews",
      "target": 34962
    },
    {
      "buffer": 0,
      "byteLength": 228160,
      "byteOffset": 701360,
      "byteStride": 16,
      "name": "floatBufferViews",
      "target": 34962
    }
  ],
  "buffers": [
    {
      "byteLength": 929520,
      "uri": "scene.bin"
    }
  ],
  "extensionsUsed": [
    "KHR_materials_emissive_strength",
    "KHR_materials_specular"
  ],
  "images": [
    {
      "uri": "textures/Material.001_baseColor.png"
    },
    {
      "uri": "textures/Material.001_metallicRoughness.png"
    },
    {
      "uri": "textures/Material.001_emissive.png"
    },
    {
      "uri": "textures/Material.001_normal.png"
    }
  ],
  "materials": [
    {
      "doubleSided": true,
      "emissiveFactor": [
        1.0,
        1.0,
        1.0
      ],
      "emissiveTexture": {
        "index": 2
      },
      "extensions": {
        "KHR_materials_emissive_strength": {
          "emissiveStrength": 10.0
        },
        "KHR_materials_specular": {
          "specularColorFactor": [
            1.0,
            1.0,
            1.0
          ],
          "specularFactor": 0.13297833811381418
        }
      },
      "name": "Material.001",
      "normalTexture": {
        "index": 3
      },
      "occlusionTexture": {
        "index": 1,
        "strength": 0.5222822141205297
      },
      "pbrMetallicRoughness": {
        "baseColorFactor": [
          0.5587794524961592,
          0.5587794524961592,
          0.5587794524961592,
          1.0
        ],
        "baseColorTexture": {
          "index": 0
        },
        "metallicFactor": 0.5648623255587643,
        "metallicRoughnessTexture": {
          "index": 1
        }
      }
    },
    {
      "alphaMode": "BLEND",
      "doubleSided": true,
      "extensions": {
        "KHR_materials_specular": {
          "specularColorFactor": [
            1.0,
            1.0,
            1.0
          ],
          "specularFactor": 1.0
        }
      },
      "name": "Material.004",
      "normalTexture": {
        "index": 3
      },
      "pbrMetallicRoughness": {
        "baseColorFactor": [
          0.022755875972511302,
          0.05452345734757038,
          0.09185510786267359,
          0.9784976938158995
        ],
        "roughnessFactor": 0.0
      }
    }
  ],
  "meshes": [
    {
      "name": "Cube.009_Material.001_0",
      "primitives": [
        {
          "attributes": {
            "NORMAL": 1,
            "POSITION": 0,
            "TANGENT": 2,
            "TEXCOORD_0": 3
          },
          "indices": 4,
          "material": 0,
          "mode": 4
        }
      ]
    },
    {
      "name": "Cube.009_Material.004_0",
      "primitives": [
        {
          "attributes": {
            "NORMAL": 6,
            "POSITION": 5,
            "TANGENT": 7,
            "TEXCOORD_0": 8
          },
          "indices": 9,
          "material": 1,
          "mode": 4
        }
      ]
    }
  ],
  "nodes": [
    {
      "children": [
        1
      ],
      "matrix": [
        0.36307933926582336,
        0.0,
        0.0,
        0.0,
        0.0,
        8.061980844372116e-17,
        -0.36307933926582336,
        0.0,
        0.0,
        0.36307933926582336,
        8.061980844372116e-17,
        0.0,
        0.0,
        0.0,
        0.0,
        1.0
      ],
      "name": "Sketchfab_model"
    },
    {
      "children": [
        2
      ],
      "matrix": [
        0.009999999776482582,
        0.0,
        0.0,
        0.0,
        0.0,
        0.0,
        0.009999999776482582,
        0.0,
        0.0,
        -0.009999999776482582,
        0.0,
        0.0,
        0.0,
        0.0,
        0.0,
        1.0
      ],
      "name": "718de3c43d954146b5015c78c5ab71be.fbx"
    },
    {
      "children": [
        3
      ],
      "name": "RootNode"
    },
    {
      "children": [
        4,
        5
      ],
      "matrix": [
        -99.99999999999241,
        1.2246465878873718e-14,
        3.8941437775530106e-05,
        0.0,
        3.894143777553e-05,
        7.549789982075339e-06,
        99.99999999999213,
        0.0,
        -2.9277502948264183e-12,
        99.9999999999997,
        -7.549789970973109e-06,
        0.0,
        0.0,
        0.0,
        0.0,
        1.0
      ],
      "name": "Cube.009"
    },
    {
      "mesh": 0,
      "name": "Cube.009_Material.001_0"
    },
    {
      "mesh": 1,
      "name": "Cube.009_Material.004_0"
    }
  ],
  "samplers": [
    {
      "magFilter": 9729,
      "minFilter": 9987,
      "wrapS": 10497,
      "wrapT": 10497
    }
  ],
  "scene": 0,
  "scenes": [
    {
      "name": "Sketchfab_Scene",
      "nodes": [
        0
      ]
    }
  ],
  "textures": [
    {
      "sampler": 0,
      "source": 0
    },
    {
      "sampler": 0,
      "source": 1
    },
    {
      "sampler": 0,
      "source": 2
    },
    {
      "sampler": 0,
      "source": 3
    }
  ]
}
